<?xml version="1.0" standalone="no"?>
<!DOCTYPE svg PUBLIC "-//W3C//DTD SVG 20010904//EN"
 "http://www.w3.org/TR/2001/REC-SVG-20010904/DTD/svg10.dtd">
<svg version="1.0" xmlns="http://www.w3.org/2000/svg"
 width="1536.000000pt" height="1024.000000pt" viewBox="0 0 1536.000000 1024.000000"
 preserveAspectRatio="xMidYMid meet">
<metadata>
Created by potrace 1.16, written by Peter Selinger 2001-2019
</metadata>
<g transform="translate(0.000000,1024.000000) scale(0.100000,-0.100000)"
fill="#000000" stroke="none">
<path d="M0 5120 l0 -5120 7680 0 7680 0 0 5120 0 5120 -7680 0 -7680 0 0
-5120z m7790 3073 c254 -50 465 -217 574 -455 69 -148 86 -268 87 -588 0 -355
-11 -599 -28 -616 -18 -17 -83 -18 -106 -1 -15 11 -15 28 -1 222 22 292 15
658 -14 771 -36 142 -87 236 -182 338 -228 246 -627 306 -937 142 -147 -79
-228 -164 -304 -320 -67 -137 -74 -190 -74 -531 0 -165 6 -372 14 -459 10
-132 10 -160 -1 -168 -16 -11 -87 -3 -101 11 -16 16 -29 281 -30 631 -1 322
-1 326 26 425 35 130 101 262 174 350 94 111 247 205 403 245 117 31 354 32
500 3z m-1030 -1737 c53 -8 129 -24 170 -35 184 -50 251 -56 660 -55 422 0
476 5 687 64 125 35 209 39 243 12 19 -16 26 -39 42 -147 24 -171 61 -332 109
-486 81 -261 166 -404 360 -604 l127 -131 7 -80 c16 -184 46 -492 64 -669 22
-206 29 -271 91 -805 79 -682 85 -802 49 -876 -22 -47 -58 -78 -137 -118 -195
-99 -520 -153 -1057 -177 -307 -13 -1343 -6 -1510 11 -172 17 -406 58 -518 91
-126 37 -292 116 -332 159 l-30 31 1 212 c1 211 5 258 79 962 32 306 81 850
95 1054 6 91 16 174 22 184 5 11 63 72 128 136 127 125 221 255 284 393 76
168 141 424 182 718 15 102 22 129 40 147 27 27 23 27 144 9z m3263 -1177 c38
-13 50 -29 21 -29 -28 0 -145 -67 -244 -140 -215 -158 -316 -218 -449 -265
l-40 -14 -5 62 c-3 34 -7 88 -8 120 l-3 59 60 22 c57 21 85 35 268 136 115 63
146 71 262 66 55 -2 117 -10 138 -17z m-4644 -49 c32 -10 120 -49 197 -85 76
-37 167 -78 202 -92 l64 -26 -7 -96 c-4 -53 -11 -100 -15 -105 -19 -20 -208
62 -413 178 -154 88 -226 116 -299 116 l-53 1 54 49 c29 27 67 56 85 64 43 21
115 20 185 -4z m4756 -85 c15 -32 19 -60 18 -140 -2 -179 -44 -366 -162 -721
-86 -257 -97 -310 -116 -560 -8 -110 -20 -230 -26 -269 -40 -258 -114 -393
-272 -498 -30 -20 -58 -37 -61 -37 -3 0 -6 35 -5 78 l0 77 62 40 c73 48 121
107 142 178 9 29 20 117 25 197 35 519 36 523 138 720 117 222 172 422 172
621 0 115 -26 212 -68 257 l-28 30 60 36 c34 20 70 35 81 34 12 -2 28 -19 40
-43z m-5079 -166 c-45 -53 -60 -118 -46 -203 12 -76 21 -101 95 -276 31 -74
83 -213 116 -307 127 -372 247 -579 408 -708 l61 -50 -5 -75 c-3 -41 -8 -101
-11 -132 l-7 -58 -29 18 c-59 34 -194 189 -237 271 -47 91 -64 142 -121 371
-71 282 -138 466 -256 702 -66 131 -94 224 -94 308 0 115 46 180 128 180 l34
0 -36 -41z"/>
<path d="M6730 5011 c-83 -27 -130 -75 -150 -151 -9 -33 -10 -224 -5 -780 l7
-735 26 -48 c28 -52 83 -96 143 -116 97 -32 257 -43 678 -48 440 -6 729 5 891
33 104 18 198 62 240 112 60 73 60 67 54 790 -3 361 -9 686 -14 721 -13 88
-50 145 -120 185 l-55 31 -595 0 c-327 0 -703 3 -835 7 -132 4 -251 4 -265 -1z
m685 -118 c133 -3 383 -1 592 7 347 12 363 12 400 -6 27 -13 45 -33 61 -64
l22 -46 0 -687 c0 -761 3 -731 -64 -782 -75 -57 -281 -75 -856 -75 -390 0
-642 11 -738 31 -70 14 -116 54 -131 113 -8 31 -11 262 -11 748 0 752 -1 739
50 766 26 14 30 14 675 -5z"/>
<path d="M6883 4493 c-8 -20 3 -29 162 -133 66 -43 165 -120 220 -170 170
-157 235 -210 255 -210 67 0 -57 208 -189 317 -93 77 -221 152 -315 185 -93
32 -124 35 -133 11z"/>
<path d="M8180 4491 c-30 -9 -93 -37 -140 -61 -157 -81 -370 -325 -370 -424 0
-57 30 -36 240 169 109 106 185 171 257 218 56 37 105 72 108 78 8 12 -13 39
-29 38 -6 0 -36 -8 -66 -18z"/>
</g>
</svg>
